<svg width="32" height="32" viewBox="0 0 32 32" fill="none" xmlns="http://www.w3.org/2000/svg">
<path d="M19.4673 15.8695C19.4673 16.0799 19.3888 16.2902 19.2322 16.4506L14.3027 21.4982C13.9891 21.8193 13.4807 21.8193 13.1672 21.4982C12.8538 21.1772 12.8538 20.6567 13.1672 20.3356L17.5292 15.8695L13.1674 11.4033C12.8539 11.0822 12.8539 10.5618 13.1674 10.2408C13.4808 9.91957 13.9892 9.91957 14.3028 10.2408L19.2324 15.2883C19.389 15.4488 19.4673 15.6592 19.4673 15.8695Z" fill="#D9D9D9"/>
<path fill-rule="evenodd" clip-rule="evenodd" d="M16 31C24.2843 31 31 24.2843 31 16C31 7.71573 24.2843 1 16 1C7.71573 1 1 7.71573 1 16C1 24.2843 7.71573 31 16 31Z" stroke="white"/>
</svg>
